<svg width="68" height="62" viewBox="0 0 68 62" fill="none" xmlns="http://www.w3.org/2000/svg">
<path d="M44.0759 31.5977L41.7227 34.494L42.3864 36.6059L53.0364 33.0458L44.0759 31.5977Z" fill="#E6E6E6" stroke="#E6E6E6"/>
<path d="M36.7746 33.8611L41.7527 34.4947L42.4767 36.6066L36.5031 37.572L33.2749 43.1233L29.9863 29.3959L31.706 26.9521L36.7746 33.8611Z" fill="#D8D8D8" stroke="#D8D8D8"/>
<path d="M24.9121 48.0707L30.041 29.667L38.1568 60.4405H32.5753L24.9121 48.0707Z" fill="#ADADAD" stroke="#ADADAD"/>
<path d="M49.1475 60.4407L42.3592 36.3047L36.6872 37.3606L33.1875 42.7611L37.9845 60.4407H49.1475Z" fill="#ADADAD" stroke="#ADADAD"/>
<path d="M52.887 32.8945L42.418 36.3943L49.1459 60.4398H51.4992L57.865 54.1644L50.4432 36.3943L52.887 32.8945Z" fill="#CACACA" stroke="#CACACA"/>
<path d="M50.418 36.3037L52.8014 32.8945L60.4043 52.2637L57.7795 54.3455L50.418 36.3037Z" fill="#808080" stroke="#808080"/>
<path d="M64.8345 54.7697L60.3995 52.2656L57.8652 54.1663L64.8345 54.7697Z" fill="#E6E6E6" stroke="#E6E6E6"/>
<path d="M61.7919 59.4133L57.6888 54.3447L51.2324 60.5296H60.4041L61.7919 59.4133Z" fill="#CACACA" stroke="#CACACA"/>
<path d="M67.0029 60.4402L64.8307 54.7079L57.5898 54.1045L61.7835 59.4144L60.4862 60.4402H67.0029Z" fill="#ADADAD" stroke="#ADADAD"/>
<path d="M18.6992 46.5327L27.0865 27.8574L30.2544 29.3358L25.0048 48.2222L32.7283 60.5618H26.0909L18.6992 46.5327Z" fill="#CACACA" stroke="#CACACA"/>
<path d="M11.733 43.4844L16.0473 45.3247L9.56078 48.6736L5.63867 45.6868L11.733 43.4844Z" fill="#E6E6E6" stroke="#E6E6E6"/>
<path d="M1.50586 60.3801L5.72967 45.627L9.2294 48.1612L7.90191 60.6215L1.50586 60.3801Z" fill="#808080" stroke="#808080"/>
<path d="M13.0011 46.5293L9.26 48.0981L7.90234 60.5886H20.2721L16.6517 57.4207L13.0011 46.5293Z" fill="#C8C8C8" stroke="#C8C8C8"/>
<path d="M16.055 45.3574L18.71 46.7452L26.1922 60.4726H20.1883L16.6584 57.5461L12.7363 46.7452L16.055 45.3574Z" fill="#D3D3D3" stroke="#D3D3D3"/>
<path d="M47 10.0807L47.7844 1.57277C51.1333 0.0944972 52.0686 3.08144 54.2408 2.93058C55.5985 3.29262 60.6369 -3.10343 64.2271 5.58543C59.2792 0.45652 57.5595 8.45163 55.3571 7.96887C53.9995 7.96887 50.1377 5.43459 47 10.0807Z" fill="#01D449" stroke="#01D449"/>
<path d="M49.0167 6.03847C47.1824 5.19371 48.2524 2.44824 49.0167 1.18109C51.3097 0.668178 52.7578 3.56452 55.1111 2.6896C59.1539 -0.0860749 62.1105 0.758709 64.0113 4.92218C61.7485 1.78449 58.5203 4.16793 57.8566 5.4049C56.5291 7.45647 55.0507 6.79273 53.7534 6.03847C50.4045 4.92218 50.4347 6.49102 49.0167 6.03847Z" fill="#01D449" stroke="#01D449"/>
<rect x="45.9336" y="1.0625" width="0.625748" height="33.0664" rx="0.312874" transform="rotate(4.85373 45.9336 1.0625)" fill="#383838"/>
</svg>
